<svg xmlns="http://www.w3.org/2000/svg" width="100" height="116" viewBox="0 0 100 116"><title>weather-tucson</title><g opacity="0.2"><path d="M85.87,113Q92,63.41,98.06,13.83l.11-1-7.84-1-5.8-.76c-3-.4-6-.83-8.93-1.27C69.78,9,64,8.21,58.15,7.34S46.47,5.52,40.63,4.57l-12.48-2L27,2.34v0c-.51,3.34-2.39,14-2.43,14.18,0,0-.37.32-.41.36l-.68.76a9.92,9.92,0,0,1-.77,1.43,2.14,2.14,0,0,1-.91.19.82.82,0,0,1-.77-.25,3.59,3.59,0,0,0-.69-.81c.21-.16.11-.5,0-.74a2,2,0,0,0-.63-.81.75.75,0,0,0-.95.09.36.36,0,0,0-.34-.28c-.15,0-.29.08-.43.07s-.25-.24-.11-.29a.89.89,0,0,0-.8-.22,3.16,3.16,0,0,1-.86.07,12,12,0,0,1-1.5.31c-.17,0-.36,0-.47.09s0,.5.07.76-.21.7-.27,1.06a4,4,0,0,0,.69,2.38,2.57,2.57,0,0,0-.82,1c-.11.29.07.62,0,.93s-.23,1.7-.25,1.87c-.05.38.48.75.27,1.07-.07.1-.19.15-.25.25s-.11.93-.19,1.09c-.46.84.19,1.85.31,2.7s.08,4.26-.32,4.45a1.1,1.1,0,0,1-.54,0c-.19,0-.42.08-.42.26s.58.64.49.82-.34.17-.46.31-.22,1.8-.46,2.49a.83.83,0,0,0-.08.43c0,.21.23.35.37.51.27.31.57,1.71.8,2a3,3,0,0,1,.69.95,10,10,0,0,1,.23,1.91c-.08.14,0,.29.14.41a1.74,1.74,0,0,1,.23,1.73,1.3,1.3,0,0,0-.13.36c0,.13.29.32.35.32.37,0,1.17,1.16,1.38,1.38a12.15,12.15,0,0,1,1,1,1.58,1.58,0,0,1,.35,1.34.53.53,0,0,1-.25.17c-.71.09-1.07,1-1.77,1.17a6.71,6.71,0,0,0-.83.26c-.41.24-2.12.66-2.23,1.18-.05.21,0,.43-.07.64a4,4,0,0,1-1.4,1.15c-.18.07-.38.23-.34.42s.31.35.26.55c-.09,0-.28.84-.41.72a7.7,7.7,0,0,0,0,2.09c0,.32-.46,1-.55,1.07S9.16,62.17,9,62.27A11,11,0,0,0,7.4,64c-.39.27-1-.22-1.35.13.13.35.43,1,0,1.32-.17.19-.49.32-.45.56s.25.27.43.35.36.27.26.43a8.88,8.88,0,0,1-.63,2.13,1,1,0,0,0-.31.59,11.5,11.5,0,0,0,.4,1.25A2.79,2.79,0,0,0,6.85,71c.49,0,1.06.08,1.23.63a5.39,5.39,0,0,1,.32,1c-.05.1,0,1-.1,1.3s-1,1-1.12,1.19a.83.83,0,0,0-.26.8,3.78,3.78,0,0,1-1.66.22c-.69-.17-1-.64-1.45.12a7.36,7.36,0,0,1-.9,1.18c-.11.12-.66.38-.64.5a6.47,6.47,0,0,1-.41,1.65c-.11.13.06.3.21.38C4,81.12,5.9,82.22,7.82,83.32c3,1.7,14.86,8.48,17.84,10.12,5.73,3.17,29.28,16,29.25,16.15l30.87,4.07Z"/></g><path d="M61.83,80.7A3.91,3.91,0,0,0,57.39,84C57.07,86.12,60,93,60,93s4.81-5.71,5.13-7.84A3.9,3.9,0,0,0,61.83,80.7Zm-.65,4.36a1.46,1.46,0,1,1,1.65-1.22A1.46,1.46,0,0,1,61.18,85.06Z" fill="#fff"/></svg>