<svg xmlns="http://www.w3.org/2000/svg" width="50" height="50" viewBox="0 0 50 50"><title>weather-icon-snow</title><line x1="25" y1="5.29" x2="25" y2="44.71" fill="none" stroke="#fff" stroke-linecap="round" stroke-linejoin="round" stroke-width="2"/><line x1="44.71" y1="25" x2="5.29" y2="25" fill="none" stroke="#fff" stroke-linecap="round" stroke-linejoin="round" stroke-width="2"/><line x1="38.93" y1="38.93" x2="11.07" y2="11.07" fill="none" stroke="#fff" stroke-linecap="round" stroke-linejoin="round" stroke-width="2"/><line x1="38.93" y1="11.07" x2="11.07" y2="38.93" fill="none" stroke="#fff" stroke-linecap="round" stroke-linejoin="round" stroke-width="2"/><polyline points="20.13 5.67 24.96 10.5 29.87 5.6" fill="none" stroke="#fff" stroke-linecap="round" stroke-linejoin="round" stroke-width="2"/><polyline points="20.13 10.57 24.96 15.4 29.87 10.5" fill="none" stroke="#fff" stroke-linecap="round" stroke-linejoin="round" stroke-width="2"/><polyline points="29.87 44.33 25.04 39.5 20.13 44.4" fill="none" stroke="#fff" stroke-linecap="round" stroke-linejoin="round" stroke-width="2"/><polyline points="29.87 39.43 25.04 34.6 20.13 39.5" fill="none" stroke="#fff" stroke-linecap="round" stroke-linejoin="round" stroke-width="2"/><polyline points="44.33 20.37 39.5 25.2 44.4 30.1" fill="none" stroke="#fff" stroke-linecap="round" stroke-linejoin="round" stroke-width="2"/><polyline points="39.43 20.37 34.6 25.2 39.5 30.1" fill="none" stroke="#fff" stroke-linecap="round" stroke-linejoin="round" stroke-width="2"/><polyline points="5.67 30.1 10.5 25.27 5.6 20.37" fill="none" stroke="#fff" stroke-linecap="round" stroke-linejoin="round" stroke-width="2"/><polyline points="10.57 30.1 15.4 25.27 10.5 20.37" fill="none" stroke="#fff" stroke-linecap="round" stroke-linejoin="round" stroke-width="2"/></svg>